<svg width="125" height="125" viewBox="0 0 125 125" fill="none" xmlns="http://www.w3.org/2000/svg">
<mask id="mask0_1062_1399" style="mask-type:luminance" maskUnits="userSpaceOnUse" x="11" y="9" width="103" height="107">
<path d="M62.4999 10.4167L76.1796 20.3959L93.1145 20.3647L98.315 36.4792L112.034 46.4063L106.771 62.5001L112.034 78.5938L98.315 88.5209L93.1145 104.635L76.1796 104.604L62.4999 114.583L48.8202 104.604L31.8853 104.635L26.6848 88.5209L12.9661 78.5938L18.2291 62.5001L12.9661 46.4063L26.6848 36.4792L31.8853 20.3647L48.8202 20.3959L62.4999 10.4167Z" fill="white" stroke="white" stroke-width="2" stroke-linecap="round" stroke-linejoin="round"/>
<path d="M44.2708 62.5001L57.2916 75.5209L83.3333 49.4792" stroke="black" stroke-width="2" stroke-linecap="round" stroke-linejoin="round"/>
</mask>
<g mask="url(#mask0_1062_1399)">
<path d="M0 0H125V125H0V0Z" fill="black"/>
</g>
</svg>
